<?xml version="1.0" encoding="UTF-8" standalone="no"?>
<!-- Created with Inkscape (http://www.inkscape.org/) -->

<svg
   xmlns:dc="http://purl.org/dc/elements/1.1/"
   xmlns:cc="http://creativecommons.org/ns#"
   xmlns:rdf="http://www.w3.org/1999/02/22-rdf-syntax-ns#"
   xmlns:svg="http://www.w3.org/2000/svg"
   xmlns="http://www.w3.org/2000/svg"
   xmlns:xlink="http://www.w3.org/1999/xlink"
   xmlns:sodipodi="http://sodipodi.sourceforge.net/DTD/sodipodi-0.dtd"
   xmlns:inkscape="http://www.inkscape.org/namespaces/inkscape"
   width="360.27274"
   height="228.65288"
   id="svg2"
   version="1.1"
   inkscape:version="0.47pre4 r22446"
   sodipodi:docname="Akatsuki clouds.svg">
  <title
     id="title3876">Akatsuki clouds</title>
  <defs
     id="defs4">
    <linearGradient
       id="linearGradient3812">
      <stop
         style="stop-color:#ffffff;stop-opacity:0.73619634;"
         offset="0"
         id="stop3814" />
      <stop
         id="stop3822"
         offset="0.58234936"
         style="stop-color:#ffffff;stop-opacity:0.32515338;" />
      <stop
         id="stop3820"
         offset="0.58234936"
         style="stop-color:#ffffff;stop-opacity:0.00613497;" />
      <stop
         style="stop-color:#ffffff;stop-opacity:0;"
         offset="1"
         id="stop3816" />
    </linearGradient>
    <linearGradient
       inkscape:collect="always"
       id="linearGradient3802">
      <stop
         style="stop-color:#2b0000;stop-opacity:1"
         offset="0"
         id="stop3804" />
      <stop
         style="stop-color:#d40000;stop-opacity:1"
         offset="1"
         id="stop3806" />
    </linearGradient>
    <linearGradient
       inkscape:collect="always"
       xlink:href="#linearGradient3802"
       id="linearGradient3847"
       gradientUnits="userSpaceOnUse"
       x1="448.15305"
       y1="261.55264"
       x2="448.15305"
       y2="341.1568" />
    <radialGradient
       inkscape:collect="always"
       xlink:href="#linearGradient3812"
       id="radialGradient3849"
       gradientUnits="userSpaceOnUse"
       gradientTransform="matrix(-9.9839393e-8,1.1285817,-4.0527865,0,1450.1805,-247.25937)"
       cx="448.78992"
       cy="247.48059"
       fx="448.78992"
       fy="247.48059"
       r="64.186028" />
    <linearGradient
       inkscape:collect="always"
       xlink:href="#linearGradient3802"
       id="linearGradient3851"
       gradientUnits="userSpaceOnUse"
       x1="448.15305"
       y1="261.55264"
       x2="448.15305"
       y2="341.1568" />
    <radialGradient
       inkscape:collect="always"
       xlink:href="#linearGradient3812"
       id="radialGradient3853"
       gradientUnits="userSpaceOnUse"
       gradientTransform="matrix(-9.9839393e-8,1.1285817,-4.0527865,0,1450.1805,-247.25937)"
       cx="448.78992"
       cy="247.48059"
       fx="448.78992"
       fy="247.48059"
       r="64.186028" />
  </defs>
  <sodipodi:namedview
     id="base"
     pagecolor="#000000"
     bordercolor="#666666"
     borderopacity="1.0"
     inkscape:pageopacity="1"
     inkscape:pageshadow="2"
     inkscape:zoom="1.7556144"
     inkscape:cx="278.28064"
     inkscape:cy="66.309312"
     inkscape:document-units="px"
     inkscape:current-layer="layer1"
     showgrid="false"
     showguides="true"
     inkscape:guide-bbox="true"
     inkscape:window-width="1920"
     inkscape:window-height="1126"
     inkscape:window-x="0"
     inkscape:window-y="25"
     inkscape:window-maximized="1" />
  <metadata
     id="metadata7">
    <rdf:RDF>
      <cc:Work
         rdf:about="">
        <dc:format>image/svg+xml</dc:format>
        <dc:type
           rdf:resource="http://purl.org/dc/dcmitype/StillImage" />
        <dc:title>Akatsuki clouds</dc:title>
        <dc:date>quarta, 02 de dezembro de 2009</dc:date>
        <dc:creator>
          <cc:Agent>
            <dc:title>Leandro G. do Rosário</dc:title>
          </cc:Agent>
        </dc:creator>
        <cc:license
           rdf:resource="http://creativecommons.org/licenses/publicdomain/" />
        <dc:description>Akatsuki clouds, with or without gloss.
Contact: leangoro@gmail.com</dc:description>
        <dc:subject>
          <rdf:Bag>
            <rdf:li>Akatsuki clouds</rdf:li>
            <rdf:li>glossy</rdf:li>
            <rdf:li>shiny</rdf:li>
            <rdf:li>Naruto</rdf:li>
          </rdf:Bag>
        </dc:subject>
      </cc:Work>
      <cc:License
         rdf:about="http://creativecommons.org/licenses/publicdomain/">
        <cc:permits
           rdf:resource="http://creativecommons.org/ns#Reproduction" />
        <cc:permits
           rdf:resource="http://creativecommons.org/ns#Distribution" />
        <cc:permits
           rdf:resource="http://creativecommons.org/ns#DerivativeWorks" />
      </cc:License>
    </rdf:RDF>
  </metadata>
  <g
     inkscape:label="Camada 1"
     inkscape:groupmode="layer"
     id="layer1"
     transform="translate(-175.32783,-131.13109)">
    <rect
       style="opacity:1;fill:#000000;fill-opacity:1;stroke:none"
       id="rect3920"
       width="454.54172"
       height="277.96536"
       x="128.62053"
       y="110.86826" />
    <g
       id="g3833"
       transform="translate(-18.165054,-75.082227)">
      <path
         style="fill:#ffffff;stroke:none"
         d="m 227.40099,267.05402 c 6.45569,7.71478 15.23315,9.38219 19.49447,5.81949 4.26133,-3.56271 7.55961,-12.53849 17.96582,-9.08497 -4.80883,-12.75572 9.52679,-28.22162 23.54086,-21.59068 3.74222,-17.29284 38.97513,-18.21764 41.42693,2.79631 31.42407,-8.8702 37.62135,56.10121 0,51.16226 -0.55543,17.04658 -31.39676,23.43105 -35.00576,7.24972 -6.22585,13.37989 -31.15308,15.19831 -33.76294,-2.88435 -16.74436,7.33033 -31.58933,-12.95522 -33.65938,-33.46778 z"
         id="path3835"
         sodipodi:nodetypes="czccccccc" />
      <path
         style="fill:#800000;stroke:none"
         d="m 309.69654,231.69965 c -4.37979,-0.10693 -8.80969,0.91553 -12.21875,2.84375 -3.40906,1.92822 -5.76454,4.64453 -6.53125,8.1875 -8.0298,28.80395 27.12564,23.03434 18.93613,5.03151 l 3.06106,-1.66761 c 10.04869,23.44669 -32.04993,29.09391 -25.46594,-1.6764 -12.08404,-5.71772 -24.16163,7.87548 -20.15625,18.5 0.33026,0.8686 0.11613,1.91887 -0.52783,2.58885 -0.64395,0.66997 -1.68492,0.92552 -2.56592,0.6299 -4.52361,-1.50125 -6.66773,-0.45854 -8.90625,1.4375 -2.23852,1.89604 -4.01668,4.95454 -6.6875,7.1875 -2.91591,2.43786 -7.0582,2.89529 -11.15625,1.8125 -2.09206,-0.55276 -4.20499,-1.5392 -6.25,-2.90625 1.80893,7.31123 5.18157,14.15434 9.46875,18.90625 5.61226,6.22063 12.13989,8.9096 19.5,5.6875 -2.272,-14.96953 20.69562,-22.16038 22.71776,-4.00084 l -2.85405,0.19367 c -2.0169,-14.01234 -19.94976,-8.56437 -16.42621,5.71342 0.95971,3.88883 2.25389,6.56266 4.5625,8.34375 2.30861,1.78109 5.36496,2.72367 8.59375,2.78125 6.45757,0.11515 13.33859,-3.35221 15.9375,-8.9375 0.42829,-0.93332 1.487,-1.53501 2.50803,-1.42537 1.02103,0.10964 1.92785,0.92239 2.14822,1.92537 0.73212,3.28252 2.62377,5.17881 5.4375,6.34375 2.81373,1.16494 6.59524,1.36361 10.3125,0.59375 3.71726,-0.76986 7.36262,-2.48382 10,-4.875 2.63738,-2.39118 4.2602,-5.35157 4.375,-8.875 -20.40344,-8.93813 -6.01105,-32.48351 7.41006,-24.7981 l -0.57248,2.56955 c -10.3894,-6.73983 -23.7222,14.73602 -4.05633,19.8848 8.72136,1.14494 14.33889,-1.60941 18.0625,-6.25 3.72361,-4.64059 5.42374,-11.44993 5.0625,-18.21875 -0.36124,-6.76882 -2.78832,-13.41317 -6.6875,-17.625 -3.89918,-4.21183 -9.01651,-6.24772 -16.09375,-4.25 -1.36364,0.36686 -2.92742,-0.69146 -3.09375,-2.09375 -0.5339,-4.576 -2.75732,-7.74997 -5.96875,-10 -3.21143,-2.25003 -7.4939,-3.45554 -11.875,-3.5625 z"
         id="path3837"
         sodipodi:nodetypes="cscccccscssscscccssscscsssccccsssccsc" />
    </g>
    <g
       id="g3829"
       transform="matrix(-1,0,0,1,568.64199,26.642082)">
      <path
         sodipodi:nodetypes="czccccccc"
         id="path2890-1"
         d="m 227.40099,267.05402 c 6.45569,7.71478 15.23315,9.38219 19.49447,5.81949 4.26133,-3.56271 7.55961,-12.53849 17.96582,-9.08497 -4.80883,-12.75572 9.52679,-28.22162 23.54086,-21.59068 3.74222,-17.29284 38.97513,-18.21764 41.42693,2.79631 31.42407,-8.8702 37.62135,56.10121 0,51.16226 -0.55543,17.04658 -31.39676,23.43105 -35.00576,7.24972 -6.22585,13.37989 -31.15308,15.19831 -33.76294,-2.88435 -16.74436,7.33033 -31.58933,-12.95522 -33.65938,-33.46778 z"
         style="fill:#ffffff;stroke:none" />
      <path
         sodipodi:nodetypes="cscccccscssscscccssscscsssccccsssccsc"
         id="path3726-0"
         d="m 309.69654,231.69965 c -4.37979,-0.10693 -8.80969,0.91553 -12.21875,2.84375 -3.40906,1.92822 -5.76454,4.64453 -6.53125,8.1875 -8.0298,28.80395 27.12564,23.03434 18.93613,5.03151 l 3.06106,-1.66761 c 10.04869,23.44669 -32.04993,29.09391 -25.46594,-1.6764 -12.08404,-5.71772 -24.16163,7.87548 -20.15625,18.5 0.33026,0.8686 0.11613,1.91887 -0.52783,2.58885 -0.64395,0.66997 -1.68492,0.92552 -2.56592,0.6299 -4.52361,-1.50125 -6.66773,-0.45854 -8.90625,1.4375 -2.23852,1.89604 -4.01668,4.95454 -6.6875,7.1875 -2.91591,2.43786 -7.0582,2.89529 -11.15625,1.8125 -2.09206,-0.55276 -4.20499,-1.5392 -6.25,-2.90625 1.80893,7.31123 5.18157,14.15434 9.46875,18.90625 5.61226,6.22063 12.13989,8.9096 19.5,5.6875 -2.272,-14.96953 20.69562,-22.16038 22.71776,-4.00084 l -2.85405,0.19367 c -2.0169,-14.01234 -19.94976,-8.56437 -16.42621,5.71342 0.95971,3.88883 2.25389,6.56266 4.5625,8.34375 2.30861,1.78109 5.36496,2.72367 8.59375,2.78125 6.45757,0.11515 13.33859,-3.35221 15.9375,-8.9375 0.42829,-0.93332 1.487,-1.53501 2.50803,-1.42537 1.02103,0.10964 1.92785,0.92239 2.14822,1.92537 0.73212,3.28252 2.62377,5.17881 5.4375,6.34375 2.81373,1.16494 6.59524,1.36361 10.3125,0.59375 3.71726,-0.76986 7.36262,-2.48382 10,-4.875 2.63738,-2.39118 4.2602,-5.35157 4.375,-8.875 -20.40344,-8.93813 -6.01105,-32.48351 7.41006,-24.7981 l -0.57248,2.56955 c -10.3894,-6.73983 -23.7222,14.73602 -4.05633,19.8848 8.72136,1.14494 14.33889,-1.60941 18.0625,-6.25 3.72361,-4.64059 5.42374,-11.44993 5.0625,-18.21875 -0.36124,-6.76882 -2.78832,-13.41317 -6.6875,-17.625 -3.89918,-4.21183 -9.01651,-6.24772 -16.09375,-4.25 -1.36364,0.36686 -2.92742,-0.69146 -3.09375,-2.09375 -0.5339,-4.576 -2.75732,-7.74997 -5.96875,-10 -3.21143,-2.25003 -7.4939,-3.45554 -11.875,-3.5625 z"
         style="fill:#800000;stroke:none" />
    </g>
    <g
       id="g3824"
       transform="translate(-13.32104,-7.2660216)">
      <path
         sodipodi:nodetypes="czccccccc"
         id="path2890"
         d="m 383.00845,297.06834 c 6.45569,7.71478 15.23315,9.38219 19.49447,5.81949 4.26133,-3.56271 7.55961,-12.53849 17.96582,-9.08497 -4.80883,-12.75572 9.52679,-28.22162 23.54086,-21.59068 3.74222,-17.29284 38.97513,-18.21764 41.42693,2.79631 31.42407,-8.8702 37.62135,56.10121 0,51.16226 -0.55543,17.04658 -31.39676,23.43105 -35.00576,7.24972 -6.22585,13.37989 -31.15308,15.19831 -33.76294,-2.88435 -16.74436,7.33033 -31.58933,-12.95522 -33.65938,-33.46778 z"
         style="fill:#ffffff;stroke:none" />
      <path
         sodipodi:nodetypes="cscccccscssscscccssscscsssccccsssccsc"
         id="path3726"
         d="m 465.50428,261.56027 c -4.37979,-0.10693 -8.80969,0.91553 -12.21875,2.84375 -3.40906,1.92822 -5.76454,4.64453 -6.53125,8.1875 -8.0298,28.80395 27.12564,23.03434 18.93613,5.03151 l 3.06106,-1.66761 c 10.04869,23.44669 -32.04993,29.09391 -25.46594,-1.6764 -12.08404,-5.71772 -24.16163,7.87548 -20.15625,18.5 0.33026,0.8686 0.11613,1.91887 -0.52783,2.58885 -0.64395,0.66997 -1.68492,0.92552 -2.56592,0.6299 -4.52361,-1.50125 -6.66773,-0.45854 -8.90625,1.4375 -2.23852,1.89604 -4.01668,4.95454 -6.6875,7.1875 -2.91591,2.43786 -7.0582,2.89529 -11.15625,1.8125 -2.09206,-0.55276 -4.20499,-1.5392 -6.25,-2.90625 1.80893,7.31123 5.18157,14.15434 9.46875,18.90625 5.61226,6.22063 12.13989,8.9096 19.5,5.6875 -2.272,-14.96953 20.69562,-22.16038 22.71776,-4.00084 l -2.85405,0.19367 c -2.0169,-14.01234 -19.94976,-8.56437 -16.42621,5.71342 0.95971,3.88883 2.25389,6.56266 4.5625,8.34375 2.30861,1.78109 5.36496,2.72367 8.59375,2.78125 6.45757,0.11515 13.33859,-3.35221 15.9375,-8.9375 0.42829,-0.93332 1.487,-1.53501 2.50803,-1.42537 1.02103,0.10964 1.92785,0.92239 2.14822,1.92537 0.73212,3.28252 2.62377,5.17881 5.4375,6.34375 2.81373,1.16494 6.59524,1.36361 10.3125,0.59375 3.71726,-0.76986 7.36262,-2.48382 10,-4.875 2.63738,-2.39118 4.2602,-5.35157 4.375,-8.875 -20.40344,-8.93813 -6.01105,-32.48351 7.41006,-24.7981 l -0.57248,2.56955 c -10.3894,-6.73983 -23.7222,14.73602 -4.05633,19.8848 8.72136,1.14494 14.33889,-1.60941 18.0625,-6.25 3.72361,-4.64059 5.42374,-11.44993 5.0625,-18.21875 -0.36124,-6.76882 -2.78832,-13.41317 -6.6875,-17.625 -3.89918,-4.21183 -9.01651,-6.24772 -16.09375,-4.25 -1.36364,0.36686 -2.92742,-0.69146 -3.09375,-2.09375 -0.5339,-4.576 -2.75732,-7.74997 -5.96875,-10 -3.21143,-2.25003 -7.4939,-3.45554 -11.875,-3.5625 z"
         style="fill:url(#linearGradient3851);fill-opacity:1;stroke:none" />
      <path
         style="fill:url(#radialGradient3853);fill-opacity:1;stroke:none"
         d="m 383.00845,297.06834 c 6.45569,7.71478 15.23315,9.38219 19.49447,5.81949 4.26133,-3.56271 7.55961,-12.53849 17.96582,-9.08497 -4.80883,-12.75572 9.52679,-28.22162 23.54086,-21.59068 3.74222,-17.29284 38.97513,-18.21764 41.42693,2.79631 31.42407,-8.8702 37.62135,56.10121 0,51.16226 -0.55543,17.04658 -31.39676,23.43105 -35.00576,7.24972 -6.22585,13.37989 -31.15308,15.19831 -33.76294,-2.88435 -16.74436,7.33033 -31.58933,-12.95522 -33.65938,-33.46778 z"
         id="path3810"
         sodipodi:nodetypes="czccccccc" />
    </g>
    <g
       id="g3839"
       transform="matrix(-1,0,0,1,890.75595,-108.99033)">
      <path
         style="fill:#ffffff;stroke:none"
         d="m 383.00845,297.06834 c 6.45569,7.71478 15.23315,9.38219 19.49447,5.81949 4.26133,-3.56271 7.55961,-12.53849 17.96582,-9.08497 -4.80883,-12.75572 9.52679,-28.22162 23.54086,-21.59068 3.74222,-17.29284 38.97513,-18.21764 41.42693,2.79631 31.42407,-8.8702 37.62135,56.10121 0,51.16226 -0.55543,17.04658 -31.39676,23.43105 -35.00576,7.24972 -6.22585,13.37989 -31.15308,15.19831 -33.76294,-2.88435 -16.74436,7.33033 -31.58933,-12.95522 -33.65938,-33.46778 z"
         id="path3841"
         sodipodi:nodetypes="czccccccc" />
      <path
         style="fill:url(#linearGradient3847);fill-opacity:1;stroke:none"
         d="m 465.50428,261.56027 c -4.37979,-0.10693 -8.80969,0.91553 -12.21875,2.84375 -3.40906,1.92822 -5.76454,4.64453 -6.53125,8.1875 -8.0298,28.80395 27.12564,23.03434 18.93613,5.03151 l 3.06106,-1.66761 c 10.04869,23.44669 -32.04993,29.09391 -25.46594,-1.6764 -12.08404,-5.71772 -24.16163,7.87548 -20.15625,18.5 0.33026,0.8686 0.11613,1.91887 -0.52783,2.58885 -0.64395,0.66997 -1.68492,0.92552 -2.56592,0.6299 -4.52361,-1.50125 -6.66773,-0.45854 -8.90625,1.4375 -2.23852,1.89604 -4.01668,4.95454 -6.6875,7.1875 -2.91591,2.43786 -7.0582,2.89529 -11.15625,1.8125 -2.09206,-0.55276 -4.20499,-1.5392 -6.25,-2.90625 1.80893,7.31123 5.18157,14.15434 9.46875,18.90625 5.61226,6.22063 12.13989,8.9096 19.5,5.6875 -2.272,-14.96953 20.69562,-22.16038 22.71776,-4.00084 l -2.85405,0.19367 c -2.0169,-14.01234 -19.94976,-8.56437 -16.42621,5.71342 0.95971,3.88883 2.25389,6.56266 4.5625,8.34375 2.30861,1.78109 5.36496,2.72367 8.59375,2.78125 6.45757,0.11515 13.33859,-3.35221 15.9375,-8.9375 0.42829,-0.93332 1.487,-1.53501 2.50803,-1.42537 1.02103,0.10964 1.92785,0.92239 2.14822,1.92537 0.73212,3.28252 2.62377,5.17881 5.4375,6.34375 2.81373,1.16494 6.59524,1.36361 10.3125,0.59375 3.71726,-0.76986 7.36262,-2.48382 10,-4.875 2.63738,-2.39118 4.2602,-5.35157 4.375,-8.875 -20.40344,-8.93813 -6.01105,-32.48351 7.41006,-24.7981 l -0.57248,2.56955 c -10.3894,-6.73983 -23.7222,14.73602 -4.05633,19.8848 8.72136,1.14494 14.33889,-1.60941 18.0625,-6.25 3.72361,-4.64059 5.42374,-11.44993 5.0625,-18.21875 -0.36124,-6.76882 -2.78832,-13.41317 -6.6875,-17.625 -3.89918,-4.21183 -9.01651,-6.24772 -16.09375,-4.25 -1.36364,0.36686 -2.92742,-0.69146 -3.09375,-2.09375 -0.5339,-4.576 -2.75732,-7.74997 -5.96875,-10 -3.21143,-2.25003 -7.4939,-3.45554 -11.875,-3.5625 z"
         id="path3843"
         sodipodi:nodetypes="cscccccscssscscccssscscsssccccsssccsc" />
      <path
         sodipodi:nodetypes="czccccccc"
         id="path3845"
         d="m 383.00845,297.06834 c 6.45569,7.71478 15.23315,9.38219 19.49447,5.81949 4.26133,-3.56271 7.55961,-12.53849 17.96582,-9.08497 -4.80883,-12.75572 9.52679,-28.22162 23.54086,-21.59068 3.74222,-17.29284 38.97513,-18.21764 41.42693,2.79631 31.42407,-8.8702 37.62135,56.10121 0,51.16226 -0.55543,17.04658 -31.39676,23.43105 -35.00576,7.24972 -6.22585,13.37989 -31.15308,15.19831 -33.76294,-2.88435 -16.74436,7.33033 -31.58933,-12.95522 -33.65938,-33.46778 z"
         style="fill:url(#radialGradient3849);fill-opacity:1;stroke:none" />
    </g>
  </g>
</svg>
